<svg width="340" height="134" viewBox="0 0 340 134" fill="none" xmlns="http://www.w3.org/2000/svg">
<g clip-path="url(#clip0_281_34)">
<path d="M200.52 88.45C200.52 113.17 180.03 133.22 154.75 133.22C129.47 133.22 108.98 113.18 108.98 88.45C108.98 63.72 154.74 0 154.74 0C154.74 0 200.51 63.72 200.51 88.45H200.52Z" fill="#2BA7DF"/>
<path d="M152.86 133.19C128.46 132.22 108.97 112.58 108.97 88.47C108.97 63.75 154.74 0.0200195 154.74 0.0200195C154.74 0.0200195 116.36 99.5 152.86 133.19Z" fill="#AACE50"/>
<path d="M10.92 100.15C10.11 101.08 8.82001 101.65 6.56001 101.65C1.55001 101.65 0.0500098 99.02 0.0500098 94.37L0.0100098 63.28H5.14001V94.37C5.14001 96.47 5.42001 97.24 6.84001 97.24C8.26001 97.24 8.46001 96.47 8.46001 94.41V63.28H13.51V94.37C13.51 96.51 13.71 97.32 15.09 97.32C16.47 97.32 16.79 96.55 16.79 94.41V66.19H21.89V94.41C21.89 99.06 20.47 101.73 15.46 101.73C13.24 101.73 11.82 101.12 10.93 100.15H10.92Z" fill="black"/>
<path d="M30.96 71.5201C32.17 65.9401 33.55 64.3201 38.8 64.3201H43.57V90.8801C43.57 92.2101 43.65 92.3301 45.71 92.3301H51.33V96.4501H44.25C39.88 96.4501 38.47 95.4401 38.47 91.1901V85.5701H33.01C31.88 91.0701 30.62 97.0101 29.49 102.43H24.27L30.94 71.5001L30.96 71.5201ZM38.48 81.1401V68.7701H38.44C36.74 68.7701 36.34 68.9701 35.81 71.7201L33.95 81.1401H38.48Z" fill="black"/>
<path d="M67.4301 64.27V68.72H62.0101V102.52H56.9601V68.72H51.5801V64.27H67.4301Z" fill="black"/>
<path d="M76.3299 64.27H82.0299V68.72H76.3299C74.5899 68.72 74.2699 69.37 74.2699 71.51V81.17H79.8499V85.66H74.2699V95.28C74.2699 97.75 75.3199 98.03 77.0599 98.03H82.0299V102.52H77.0999C71.4799 102.52 69.1799 100.58 69.1799 95.28V71.51C69.1799 65.93 72.2099 64.27 76.3399 64.27H76.3299Z" fill="black"/>
<path d="M84.3401 102.43V64.1799H92.3501C97.5301 64.1799 99.3801 67.0899 99.3801 71.4199V78.3299C99.3801 81.5599 98.5301 83.4599 95.9401 83.9899C97.0701 84.3899 97.8001 84.9999 98.4101 86.9399L99.6601 91.0199C99.9801 92.1099 100.39 92.3099 102.45 92.3099H107.06V96.4299H101.84C97.6701 96.4299 95.8601 95.5399 94.7201 91.7799L93.5901 88.0199C93.0201 86.0799 92.1401 85.5499 90.7601 85.5499H89.4301V102.41H84.3401V102.43ZM94.2901 79.3399V71.4199C94.2901 69.2399 93.8001 68.6299 92.1101 68.6299H89.4401V81.1199H92.8001C93.8501 81.1199 94.3001 80.7199 94.3001 79.3399H94.2901Z" fill="black"/>
<path d="M214.63 66.07C215.31 64.74 217.14 64.28 218.93 64.28C223.99 64.28 225.02 66.79 225.02 71.12V89.38C225.02 90.63 225.13 90.75 227.07 90.75H232.4V94.63H225.7C221.59 94.63 220.3 93.68 220.3 89.68L220.26 71.12C220.26 69.18 219.96 68.46 218.66 68.46C217.36 68.46 217.18 69.18 217.18 71.16V97.59H212.39V71.12C212.39 69.18 212.2 68.42 210.56 68.46H209.31V100.03H204.52V64.28H210.23C212.36 64.28 213.8 64.77 214.64 66.07H214.63Z" fill="black"/>
<path d="M242.12 63.3999H247.97V67.9599H242.12C240.34 67.9599 240.01 68.6199 240.01 70.8199V80.7299H245.73V85.3299H240.01V95.1999C240.01 97.7299 241.09 98.0199 242.87 98.0199H247.97V102.63H242.91C237.14 102.63 234.78 100.64 234.78 95.1999V70.8099C234.78 65.0899 237.89 63.3899 242.12 63.3899V63.3999Z" fill="black"/>
<path d="M251.31 102.54V63.3H259.52C264.83 63.3 266.74 66.2901 266.74 70.7201V77.81C266.74 81.13 265.87 83.0801 263.21 83.6201C264.37 84.0401 265.12 84.6601 265.74 86.6501L267.03 90.84C267.36 91.96 267.78 92.17 269.89 92.17H274.62V96.4001H269.27C265 96.4001 263.13 95.49 261.97 91.63L260.81 87.77C260.23 85.78 259.32 85.24 257.91 85.24H256.54V102.54H251.31ZM261.52 78.8601V70.7301C261.52 68.4901 261.02 67.8701 259.28 67.8701H256.54V80.68H259.98C261.06 80.68 261.52 80.2701 261.52 78.8601Z" fill="black"/>
<path d="M281.25 67.5099C279.51 67.5099 278.93 68.1399 278.93 70.3999V75.3399C278.93 77.2699 279.26 77.5999 281.42 79.0599L284.2 80.9399C287.69 83.2799 288.64 84.3299 288.68 88.1399C288.72 90.7799 288.64 91.9899 288.64 94.6699V94.9999C288.64 99.3999 286.52 102.49 281.42 102.49H274.86L272.83 97.8399H281.13C282.87 97.8399 283.41 97.2099 283.41 94.9899V88.1299C283.41 86.7899 282.95 86.0799 281.42 84.9899L278.02 82.5999C274.49 80.1299 273.7 79.1299 273.7 75.3199V70.3799C273.7 65.8999 275.82 62.8899 280.92 62.8899H287.39V67.4899H281.25V67.5099Z" fill="black"/>
<path d="M311.87 102.15L305.4 62.9099H310.79L314.36 90.8599L317.51 65.8899H322.99L316.85 102.14H311.87V102.15Z" fill="black"/>
<path d="M333.61 63.1101H339.46V67.6701H333.61C331.83 67.6701 331.5 68.3301 331.5 70.5301V80.4401H337.22V85.0401H331.5V94.9101C331.5 97.4401 332.58 97.7301 334.36 97.7301H339.46V102.34H334.4C328.63 102.34 326.27 100.35 326.27 94.9101V70.5201C326.27 64.8001 329.38 63.1001 333.61 63.1001V63.1101Z" fill="black"/>
<path d="M130.48 67.08C128.54 67.08 127.89 67.77 127.89 70.27V75.74C127.89 77.87 128.26 78.24 130.67 79.86L133.77 81.95C137.66 84.55 138.73 85.7 138.78 89.92C138.83 92.84 138.73 94.18 138.73 97.15V97.52C138.73 102.39 136.37 105.81 130.67 105.81H121.08V100.66H130.35C132.29 100.66 132.9 99.97 132.9 97.51V89.91C132.9 88.43 132.39 87.64 130.68 86.44L126.88 83.8C122.95 81.07 122.06 79.96 122.06 75.74V70.27C122.06 65.31 124.43 61.98 130.12 61.98H137.35V67.08H130.49H130.48Z" fill="white"/>
<path d="M144.96 68.96H150.68V112.74H144.96V68.96Z" fill="white"/>
<path d="M176.04 105.78C176.04 105.78 176.01 95.61 176.01 91.04L175.97 69.82C175.97 67.6 175.61 66.78 174.05 66.78C172.49 66.78 172.27 67.61 172.27 69.86V101.19L172.23 105.66H157.08V67.37C157.08 64.4 159.6 62 162.72 62H163.93C166.48 62 168.22 62.56 169.22 64.04C170.04 62.52 172.23 62 174.38 62C180.45 62 181.68 64.87 181.68 69.83V105.68L176.05 105.79L176.04 105.78ZM166.84 105.66L166.79 69.67C166.79 67.53 166.4 66.74 164.71 66.74C163.02 66.74 162.78 67.53 162.78 69.71V105.66H166.84ZM162.78 105.66H157.07H162.78Z" fill="white"/>
<path d="M147.87 64.7699C150.394 64.7699 152.44 62.7238 152.44 60.1999C152.44 57.6759 150.394 55.6299 147.87 55.6299C145.346 55.6299 143.3 57.6759 143.3 60.1999C143.3 62.7238 145.346 64.7699 147.87 64.7699Z" fill="white"/>
<path d="M294.25 70.3899H299.61V102.49H294.25V70.3899Z" fill="black"/>
<path d="M297.12 68.85C299.086 68.85 300.68 67.2561 300.68 65.29C300.68 63.3238 299.086 61.73 297.12 61.73C295.154 61.73 293.56 63.3238 293.56 65.29C293.56 67.2561 295.154 68.85 297.12 68.85Z" fill="white"/>
</g>
<defs>
<clipPath id="clip0_281_34">
<rect width="339.46" height="133.21" fill="white"/>
</clipPath>
</defs>
</svg>
